<?xml version="1.0" encoding="utf-8"?>
<!-- Generator: Adobe Illustrator 26.5.0, SVG Export Plug-In . SVG Version: 6.00 Build 0)  -->
<svg version="1.1" id="Layer_1" xmlns="http://www.w3.org/2000/svg" xmlns:xlink="http://www.w3.org/1999/xlink" x="0px" y="0px"
	 viewBox="0 0 2000 2000" style="enable-background:new 0 0 2000 2000;" xml:space="preserve">
<style type="text/css">
	.st0{display:none;fill:#FFFFFF;}
	.st1{fill-rule:evenodd;clip-rule:evenodd;fill:#FA7070;}
	.st2{filter:url(#Adobe_OpacityMaskFilter);}
	.st3{filter:url(#Adobe_OpacityMaskFilter_00000004505789215715852720000016138035875784015013_);}
	
		.st4{mask:url(#SVGID_1_);fill-rule:evenodd;clip-rule:evenodd;fill:url(#SVGID_00000024719124728131499460000001111162305306660242_);}
</style>
<rect class="st0" width="2000" height="2000"/>
<g>
	<path class="st1" d="M894.1,409.02C742.85,532.52,550.3,582.94,357.77,552.49c-51.77,422.3,159.38,837.84,536.34,1038.5
		c204.73-108.96,360.38-281.53,451.74-484.22c-5.41,0.34-11.16,0.34-16.24-0.68c-16.24,12.52-37.9,17.6-59.56,11.84
		c-14.21-3.72-26.06-11.51-34.85-22c-74.1,149.57-189.16,277.47-341.09,374.26c-283.57-180.36-438.54-468.67-439.56-804
		c164.12-0.68,300.82-39.25,439.56-127.23c19.63,12.52,39.26,24.03,58.88,34.52c4.74-10.83,11.84-19.97,20.65-26.74
		c-8.13-24.36-4.06-52.45,13.2-73.76C954.67,454.36,923.55,433.04,894.1,409.02L894.1,409.02z M1083.94,1011.68V888.16H955.69
		V759.92H832.18v128.25H703.93v123.51h128.25v128.25h123.51v-128.25H1083.94z M1349.91,458.08c-11.51,0-20.65,9.48-20.65,20.98
		c0,11.16,9.14,20.64,20.65,20.64c11.5,0,20.63-9.48,20.63-20.64C1370.55,467.55,1361.41,458.08,1349.91,458.08L1349.91,458.08z
		 M1163.12,866.51c-8.46,0-15.23,6.77-15.23,15.23c0,8.8,6.76,15.57,15.23,15.57c8.8,0,15.56-6.77,15.56-15.57
		C1178.68,873.28,1171.92,866.51,1163.12,866.51L1163.12,866.51z M1554.63,782.93c-8.8,0-15.57,6.77-15.57,15.23
		c0,8.79,6.77,15.57,15.57,15.57c8.46,0,15.22-6.77,15.22-15.57C1569.86,789.7,1563.09,782.93,1554.63,782.93L1554.63,782.93z
		 M1467.33,814.06c-17.6,0-31.81,14.21-31.81,31.81c0,17.6,14.21,32.15,31.81,32.15c17.93,0,32.15-14.55,32.15-32.15
		C1499.47,828.27,1485.26,814.06,1467.33,814.06L1467.33,814.06z M1398.3,762.29c-11.17,0-20.64,9.47-20.64,20.64
		c0,11.5,9.47,20.98,20.64,20.98c11.51,0,20.64-9.48,20.64-20.98C1418.94,771.76,1409.8,762.29,1398.3,762.29L1398.3,762.29z
		 M1299.15,872.94c-2.03-8.12,3.05-10.49,2.37-16.92c-0.34-7.44-7.45-12.86-14.89-10.83c-7.78,2.03-10.82,10.49-7.78,16.92
		c3.04,5.75,8.8,5.42,10.83,13.53c2.7,10.15-5.75,17.6-14.89,17.6c-4.41-0.34-8.8-2.03-12.52-5.75c-7.79-8.12-3.72-14.21-8.46-21.65
		c-5.41-8.13-17.59-9.82-25.04-2.37c-7.11,7.44-5.42,19.28,2.71,24.7c7.11,4.74,13.53,0.68,21.32,8.8c3.72,3.38,5.42,7.44,5.75,11.5
		c0.68,9.48-7.1,19.29-17.6,16.58c-8.12-2.37-7.78-7.78-13.87-10.82c-6.43-3.05-14.89,0.34-16.58,7.78
		c-2.03,7.44,3.39,14.55,10.83,14.89c6.43,0.68,8.8-4.4,16.92-2.37c9.81,2.37,12.18,12.52,8.46,20.3c-2.03,4.4-6.09,7.78-11.84,9.13
		c-10.82,3.05-14.21-3.72-23.01-3.04c-9.82,0.68-17.27,10.15-14.56,20.3c2.71,9.82,14.22,14.55,22.67,10.15
		c8.12-4.06,7.45-11.51,18.28-14.21c5.07-1.36,9.47-1.02,13.2,1.01c8.46,4.4,12.52,15.56,5.07,23.34
		c-5.75,5.75-10.49,2.71-15.9,6.43c-6.09,4.06-7.11,13.2-1.69,18.61c5.41,5.41,14.55,4.06,18.27-2.03
		c3.72-5.41,0.68-10.15,6.44-16.25c7.78-7.78,19.62-3.04,23.35,5.75c1.69,3.72,1.69,7.78,0.67,12.18
		c-3.05,10.83-10.49,10.49-14.22,18.27c-4.4,8.8,0,19.96,10.15,22.67c10.15,2.7,19.63-4.74,20.3-14.55
		c0.34-8.8-6.43-12.18-3.38-23.01c1.01-3.72,2.71-6.77,5.07-8.8c7.79-7.44,22-6.09,25.38,5.41c2.03,8.12-3.04,10.49-2.37,16.92
		c0.34,7.44,7.44,12.86,14.89,10.83c7.79-2.03,10.83-10.49,7.79-16.92c-3.05-5.75-8.8-5.41-10.83-13.53
		c-2.71-9.82,7.78-19.29,17.93-17.26c3.39,0.68,6.43,2.7,9.48,5.42c7.79,7.78,3.72,14.21,8.46,21.31
		c5.41,8.46,17.59,10.15,25.04,2.71c7.1-7.44,5.41-19.63-2.71-24.7c-7.1-5.08-13.53-0.68-21.32-8.8c-3.05-3.04-5.08-6.43-5.42-10.15
		c-1.7-9.81,6.43-20.64,17.26-17.93c8.12,2.03,7.78,7.78,13.87,10.49c6.42,3.38,14.89,0,16.58-7.44
		c2.03-7.79-3.38-14.89-10.83-15.23c-6.42-0.34-8.8,4.74-16.92,2.71c-10.49-2.71-12.52-14.55-7.45-22.34
		c2.37-3.39,6.1-6.09,10.83-7.44c10.83-2.71,14.21,4.06,23.01,3.38c9.82-0.68,17.26-10.15,14.55-20.3
		c-2.71-10.15-14.21-14.55-22.67-10.15c-8.12,3.72-7.44,11.51-18.27,14.22c-4.74,1.35-8.8,1.02-12.52-0.67
		c-8.8-3.72-13.53-15.91-5.75-23.69c5.75-6.09,10.49-3.05,15.91-6.43c6.08-4.06,7.1-13.2,1.69-18.61
		c-5.41-5.42-14.55-4.06-18.27,2.03c-3.73,5.42-0.68,10.15-6.43,15.91c-7.11,7.11-16.58,4.39-21.66-2.71
		c-3.04-4.06-3.72-9.13-2.37-14.89c3.04-10.83,10.49-10.49,14.21-18.27c4.4-8.8,0-19.96-10.15-22.67
		c-10.15-2.7-19.62,4.74-20.3,14.55c-0.34,8.46,6.42,11.84,3.38,23.01c-1.35,5.08-4.4,9.14-8.8,11.51
		C1313.03,885.12,1301.86,882.75,1299.15,872.94L1299.15,872.94z M1312.35,976.14c0-7.78,6.42-14.21,14.55-14.21
		c7.78,0,14.21,6.43,14.21,14.21c0,8.12-6.43,14.55-14.21,14.55C1318.77,990.7,1312.35,984.26,1312.35,976.14L1312.35,976.14z
		 M1332.98,943.32c-9.47,0-17.25-7.78-17.25-17.26c0-9.47,7.78-16.92,17.25-16.92c9.48,0,17.27,7.44,17.27,16.92
		C1350.25,935.54,1342.46,943.32,1332.98,943.32L1332.98,943.32z M1307.27,954.15c0,5.08-4.06,9.13-9.13,9.13
		c-4.74,0-8.8-4.06-8.8-9.13c0-5.08,4.06-9.14,8.8-9.14C1303.21,945.01,1307.27,949.07,1307.27,954.15L1307.27,954.15z
		 M1494.4,526.43c-2.71-9.47,3.04-12.52,2.7-19.96c-0.68-8.46-8.8-14.89-17.59-12.52c-8.8,2.37-12.52,12.18-8.8,19.62
		c3.39,6.77,9.82,6.43,12.52,15.91c3.05,11.84-6.76,20.64-17.59,20.3c-5.08,0-9.82-2.37-14.21-6.77
		c-9.14-9.14-4.41-16.25-10.15-24.7c-6.09-9.81-19.97-11.51-28.77-3.05c-8.46,8.46-6.43,22.67,3.05,28.77
		c8.46,5.75,15.56,0.68,25.04,10.15c3.72,4.06,6.08,8.8,6.42,13.54c0.68,10.82-8.45,22.33-20.63,18.95
		c-9.48-2.37-9.14-8.8-15.91-12.18c-7.44-3.73-17.26,0-19.63,8.8c-2.03,8.8,4.4,17.26,12.86,17.6c7.44,0.34,10.49-5.41,19.96-3.05
		c10.82,3.05,13.87,14.56,9.47,23.69c-2.37,5.08-7.1,9.14-13.53,10.83c-12.86,3.38-16.58-4.4-26.73-3.72
		c-11.51,0.68-19.96,11.51-16.92,23.35c3.04,11.84,16.24,16.92,26.39,11.84c9.13-4.4,8.46-13.2,21.32-16.58
		c5.42-1.35,10.82-1.01,15.23,1.36c9.81,5.07,14.55,18.27,5.75,27.07c-6.77,7.11-12.18,3.38-18.6,7.78
		c-6.77,4.74-8.46,14.89-2.03,21.32c6.43,6.43,16.92,4.74,21.65-2.37c4.06-6.09,0.34-11.51,7.45-18.61
		c8.8-9.13,22.67-3.73,27.07,6.77c1.69,4.06,2.03,8.8,0.68,13.87c-3.38,12.86-12.18,12.18-16.58,21.32
		c-5.42,10.15,0,23.34,11.84,26.39c11.51,3.04,22.67-5.41,23.35-16.92c0.68-10.15-7.1-13.87-3.72-26.73
		c1.01-4.06,3.05-7.78,5.75-10.49c9.13-8.46,25.72-6.77,29.44,6.43c2.7,9.48-3.04,12.18-2.71,19.97c0.68,8.46,8.8,14.89,17.59,12.18
		c8.8-2.37,12.52-11.84,8.8-19.62c-3.39-6.77-9.82-6.09-12.52-15.56c-3.05-11.17,8.8-22.67,20.98-19.96
		c3.72,0.68,7.44,2.7,10.82,6.09c9.14,9.47,4.41,16.58,10.15,25.04c6.1,9.47,19.97,11.5,28.77,3.04c8.46-8.8,6.43-22.67-3.05-29.1
		c-8.46-5.42-15.56-0.68-25.04-9.82c-3.38-3.72-5.41-7.78-6.08-11.84c-2.03-11.51,7.44-24.03,20.3-20.98
		c9.48,2.7,9.14,9.13,15.91,12.52c7.44,3.72,17.26-0.34,19.62-9.14c2.03-8.8-4.4-16.92-12.86-17.26
		c-7.44-0.68-10.49,5.41-19.96,2.71c-11.84-3.05-14.21-16.58-8.46-25.72c2.7-4.06,7.11-7.11,12.52-8.46
		c12.86-3.39,16.58,4.4,26.73,3.72c11.51-0.68,19.96-11.84,16.92-23.69c-3.04-11.51-16.24-16.92-26.39-11.84
		c-9.13,4.74-8.46,13.2-21.32,16.58c-5.08,1.69-9.81,1.35-14.21-0.68c-10.15-4.4-15.91-18.61-6.77-27.75
		c6.77-6.77,12.18-3.39,18.61-7.44c6.77-4.74,8.46-15.23,2.03-21.32c-6.43-6.43-16.92-5.08-21.65,2.03
		c-4.06,6.43-0.34,11.84-7.45,18.61c-7.78,8.13-19.28,5.08-25.04-3.04c-3.38-4.74-4.4-10.83-2.71-17.6
		c3.38-12.52,12.18-12.18,16.58-20.98c5.08-10.15,0-23.35-11.84-26.4c-11.84-3.38-22.67,5.42-23.35,16.92
		c-0.68,10.15,7.11,13.88,3.73,26.74c-1.69,6.09-5.42,10.83-10.15,13.2C1510.3,540.3,1497.44,537.6,1494.4,526.43L1494.4,526.43z
		 M1509.62,646.56c0-9.47,7.45-16.92,16.58-16.92c9.47,0,16.92,7.45,16.92,16.92c0,9.13-7.45,16.58-16.92,16.58
		C1517.07,663.14,1509.62,655.69,1509.62,646.56L1509.62,646.56z M1533.31,608.32c-10.83,0-19.63-9.13-19.63-19.96
		c0-11.17,8.8-19.96,19.63-19.96c11.17,0,19.97,8.8,19.97,19.96C1553.28,599.19,1544.48,608.32,1533.31,608.32L1533.31,608.32z
		 M1503.54,620.84c0,5.75-4.74,10.49-10.49,10.49c-5.75,0-10.49-4.74-10.49-10.49c0-6.09,4.74-10.49,10.49-10.49
		C1498.8,610.35,1503.54,614.75,1503.54,620.84L1503.54,620.84z M1142.81,518.99c-3.38-13.2,4.4-16.92,3.73-27.41
		c-0.68-11.84-12.18-20.65-24.36-17.26c-11.84,3.38-17.26,16.58-11.84,27.07c4.73,9.48,13.53,8.8,17.25,21.66
		c4.4,16.24-9.48,28.42-24.36,28.08c-6.77,0-13.87-3.04-19.63-8.8c-12.86-12.86-6.09-23.01-13.87-34.86
		c-8.8-12.86-28.09-15.56-39.93-3.73c-11.84,11.84-9.13,31.14,4.06,39.6c11.51,7.78,21.65,1.35,34.51,13.87
		c5.42,5.75,8.46,12.18,9.14,18.61c1.01,15.23-11.84,30.79-28.42,26.39c-13.2-3.38-12.52-12.18-22-16.91
		c-10.49-5.08-24.03,0.34-27.07,12.51c-3.04,12.18,5.75,23.35,17.59,24.03c10.49,0.68,14.22-7.44,27.41-4.06
		c15.23,4.06,19.29,19.97,13.54,32.83c-3.39,7.1-10.15,12.18-18.95,14.89c-17.59,4.4-23.01-6.09-36.88-5.41
		c-15.9,1.02-27.75,16.24-23.35,32.48c4.07,16.25,22.34,23.69,36.21,16.58c12.52-6.43,11.84-18.27,29.44-23.01
		c7.78-2.03,15.23-1.35,21.32,1.7c13.2,7.1,19.97,25.38,8.12,37.56c-9.48,9.47-17.26,4.73-25.72,10.49
		c-9.82,6.43-11.84,20.64-3.05,29.44c9.13,8.8,23.35,6.77,29.78-3.04c5.75-8.8,0.68-16.25,10.15-25.72
		c12.52-12.52,31.46-5.41,37.56,9.14c2.37,5.75,2.71,12.18,1.01,19.29c-4.74,17.6-16.92,16.92-23.01,29.44
		c-7.1,13.88,0,32.15,16.24,36.55c16.24,4.4,31.81-7.78,32.49-23.34c1.01-14.22-9.82-19.63-5.08-36.89
		c1.69-6.09,4.4-10.83,8.12-14.55c12.18-11.5,35.53-9.47,40.6,8.8c3.39,12.86-4.73,16.92-3.72,27.41
		c0.68,11.51,12.18,20.65,24.03,17.26c12.18-3.39,17.59-16.92,12.18-27.41c-4.74-9.14-13.53-8.46-17.26-21.66
		c-4.06-15.56,12.18-30.79,28.77-27.41c5.41,1.01,10.49,4.06,15.22,8.46c12.86,12.86,6.09,23.01,13.87,34.52
		c8.8,13.2,28.08,15.9,39.93,4.06c11.84-11.84,9.14-31.13-4.06-39.93c-11.84-7.44-21.66-1.01-34.52-13.87
		c-5.07-4.74-7.78-10.49-8.8-15.91c-2.71-15.9,10.49-33.5,28.09-29.1c13.2,3.38,12.52,12.52,21.99,16.92
		c10.49,5.42,23.68,0,27.07-12.18c3.05-12.18-6.09-23.68-17.6-24.02c-10.49-0.68-14.55,7.44-27.41,4.06
		c-16.58-4.4-19.96-23.35-11.84-35.87c3.72-5.75,9.82-9.81,17.26-11.84c17.6-4.74,23.01,6.09,36.88,5.41
		c15.91-1.02,27.75-16.24,23.35-32.49c-4.39-16.24-22.33-23.68-36.55-16.58c-12.52,6.43-11.5,18.27-29.1,23.01
		c-7.11,2.03-13.87,1.36-19.63-1.01c-14.55-6.43-22.33-25.72-9.81-38.24c9.47-9.47,16.92-4.74,25.72-10.49
		c9.81-6.43,11.84-20.98,2.71-29.78c-8.8-8.8-23.01-6.43-29.44,3.38c-5.75,8.46-0.68,15.91-10.15,25.72
		c-11.17,11.16-26.73,6.76-34.86-4.4c-4.73-6.43-6.09-14.89-3.72-24.36c4.73-17.26,16.92-16.58,23.01-29.1
		c7.1-14.21-0.34-32.15-16.58-36.55c-16.24-4.39-31.46,7.79-32.48,23.35c-0.68,13.87,10.15,19.29,5.41,36.89
		c-2.37,8.8-7.44,14.89-13.87,18.61C1164.81,538.28,1147.21,534.55,1142.81,518.99L1142.81,518.99z M1163.8,684.79
		c0-12.86,10.49-23.01,23.35-23.01c12.52,0,23.01,10.15,23.01,23.01c0,12.86-10.49,23.35-23.01,23.35
		C1174.29,708.15,1163.8,697.65,1163.8,684.79L1163.8,684.79z M1196.96,632.01c-15.23,0-27.41-12.18-27.41-27.41
		c0-15.23,12.18-27.75,27.41-27.75s27.41,12.52,27.41,27.75C1224.37,619.83,1212.19,632.01,1196.96,632.01L1196.96,632.01z
		 M1155.67,649.27c0,8.12-6.42,14.55-14.55,14.55c-8.12,0-14.55-6.43-14.55-14.55c0-7.79,6.43-14.55,14.55-14.55
		C1149.25,634.71,1155.67,641.48,1155.67,649.27L1155.67,649.27z"/>
	<defs>
		<filter id="Adobe_OpacityMaskFilter" filterUnits="userSpaceOnUse" x="350" y="409.02" width="889.6" height="928.52">
			<feFlood  style="flood-color:white;flood-opacity:1" result="back"/>
			<feBlend  in="SourceGraphic" in2="back" mode="normal"/>
		</filter>
	</defs>
	<mask maskUnits="userSpaceOnUse" x="350" y="409.02" width="889.6" height="928.52" id="SVGID_1_">
		<g class="st2">
			<defs>
				
					<filter id="Adobe_OpacityMaskFilter_00000079481363995010453220000016570100967387124625_" filterUnits="userSpaceOnUse" x="350" y="409.02" width="889.6" height="928.52">
					<feFlood  style="flood-color:white;flood-opacity:1" result="back"/>
					<feBlend  in="SourceGraphic" in2="back" mode="normal"/>
				</filter>
			</defs>
			<mask maskUnits="userSpaceOnUse" x="350" y="409.02" width="889.6" height="928.52" id="SVGID_1_">
				<g style="filter:url(#Adobe_OpacityMaskFilter_00000079481363995010453220000016570100967387124625_);">
				</g>
			</mask>
			
				<linearGradient id="SVGID_00000114056149043169258960000013239418234034611867_" gradientUnits="userSpaceOnUse" x1="349.9999" y1="873.2754" x2="1239.5957" y2="873.2754">
				<stop  offset="0" style="stop-color:#1A1A1A"/>
				<stop  offset="1" style="stop-color:#4D4D4D"/>
			</linearGradient>
			
				<path style="mask:url(#SVGID_1_);fill-rule:evenodd;clip-rule:evenodd;fill:url(#SVGID_00000114056149043169258960000013239418234034611867_);" d="
				M894.1,409.02C742.85,532.52,550.3,582.94,357.77,552.49c-35.19,286.28,50.76,569.5,227.06,785.05
				c27.07-22.33,53.8-45.34,80.2-68.35c-137.05-165.81-209.8-373.24-210.47-603c164.12-0.68,300.82-39.25,439.56-127.23
				c19.63,12.52,39.26,24.03,58.88,34.52c4.74-10.83,11.84-19.97,20.65-26.74c-8.13-24.36-4.06-52.45,13.2-73.76
				C954.67,454.36,923.55,433.04,894.1,409.02L894.1,409.02z M1019.65,888.16h-63.95V759.92H832.18v128.25H703.93v123.51h128.25
				v95.76C898.5,1037.73,961.11,964.64,1019.65,888.16L1019.65,888.16z M1142.81,518.99c-3.38-13.2,4.4-16.92,3.73-27.41
				c-0.68-11.84-12.18-20.65-24.36-17.26c-11.84,3.38-17.26,16.58-11.84,27.07c4.73,9.48,13.53,8.8,17.25,21.66
				c4.4,16.24-9.48,28.42-24.36,28.08c-6.77,0-13.87-3.04-19.63-8.8c-12.86-12.86-6.09-23.01-13.87-34.86
				c-8.8-12.86-28.09-15.56-39.93-3.73c-11.84,11.84-9.13,31.14,4.06,39.6c11.51,7.78,21.65,1.35,34.51,13.87
				c5.42,5.75,8.46,12.18,9.14,18.61c1.01,15.23-11.84,30.79-28.42,26.39c-13.2-3.38-12.52-12.18-22-16.91
				c-10.49-5.08-24.03,0.34-27.07,12.51c-3.04,12.18,5.75,23.35,17.59,24.03c10.49,0.68,14.22-7.44,27.41-4.06
				c15.23,4.06,19.29,19.97,13.54,32.83c-3.39,7.1-10.15,12.18-18.95,14.89c-17.59,4.4-23.01-6.09-36.88-5.41
				c-15.9,1.02-27.75,16.24-23.35,32.48c4.07,16.25,22.34,23.69,36.21,16.58c12.52-6.43,11.84-18.27,29.44-23.01
				c7.78-2.03,15.23-1.35,21.32,1.7c13.2,7.1,19.97,25.38,8.12,37.56c-9.48,9.47-17.26,4.73-25.72,10.49
				c-9.82,6.43-11.84,20.64-3.05,29.44c9.13,8.8,23.35,6.77,29.78-3.04c5.75-8.8,0.68-16.25,10.15-25.72
				c12.18-12.52,30.45-5.75,36.88,8.13c14.21-20.98,28.08-42.3,41.62-63.96c1.02-6.08,4.4-11.16,9.14-14.55
				c7.1-11.51,14.21-23.01,20.97-34.17c-13.87-1.35-24.7-13.2-24.7-27.41c0-15.23,12.18-27.75,27.41-27.75
				c9.47,0,17.6,4.74,22.67,11.84c6.77-11.51,13.54-23.35,19.97-35.19c-8.8,1.7-17.94-2.71-23.69-10.49
				c-4.73-6.43-6.09-14.89-3.72-24.36c4.73-17.26,16.92-16.58,23.01-29.1c7.1-14.21-0.34-32.15-16.58-36.55
				c-16.24-4.39-31.46,7.79-32.48,23.35c-0.68,13.87,10.15,19.29,5.41,36.89c-2.37,8.8-7.44,14.89-13.87,18.61
				C1164.81,538.28,1147.21,534.55,1142.81,518.99L1142.81,518.99z M1155.67,649.27c0,8.12-6.42,14.55-14.55,14.55
				c-8.12,0-14.55-6.43-14.55-14.55c0-7.79,6.43-14.55,14.55-14.55C1149.25,634.71,1155.67,641.48,1155.67,649.27L1155.67,649.27z"
				/>
		</g>
	</mask>
	<path class="st1" d="M894.1,409.02C742.85,532.52,550.3,582.94,357.77,552.49c-35.19,286.28,50.76,569.5,227.06,785.05
		c27.07-22.33,53.8-45.34,80.2-68.35c-137.05-165.81-209.8-373.24-210.47-603c164.12-0.68,300.82-39.25,439.56-127.23
		c19.63,12.52,39.26,24.03,58.88,34.52c4.74-10.83,11.84-19.97,20.65-26.74c-8.13-24.36-4.06-52.45,13.2-73.76
		C954.67,454.36,923.55,433.04,894.1,409.02L894.1,409.02z M1019.65,888.16h-63.95V759.92H832.18v128.25H703.93v123.51h128.25v95.76
		C898.5,1037.73,961.11,964.64,1019.65,888.16L1019.65,888.16z M1142.81,518.99c-3.38-13.2,4.4-16.92,3.73-27.41
		c-0.68-11.84-12.18-20.65-24.36-17.26c-11.84,3.38-17.26,16.58-11.84,27.07c4.73,9.48,13.53,8.8,17.25,21.66
		c4.4,16.24-9.48,28.42-24.36,28.08c-6.77,0-13.87-3.04-19.63-8.8c-12.86-12.86-6.09-23.01-13.87-34.86
		c-8.8-12.86-28.09-15.56-39.93-3.73c-11.84,11.84-9.13,31.14,4.06,39.6c11.51,7.78,21.65,1.35,34.51,13.87
		c5.42,5.75,8.46,12.18,9.14,18.61c1.01,15.23-11.84,30.79-28.42,26.39c-13.2-3.38-12.52-12.18-22-16.91
		c-10.49-5.08-24.03,0.34-27.07,12.51c-3.04,12.18,5.75,23.35,17.59,24.03c10.49,0.68,14.22-7.44,27.41-4.06
		c15.23,4.06,19.29,19.97,13.54,32.83c-3.39,7.1-10.15,12.18-18.95,14.89c-17.59,4.4-23.01-6.09-36.88-5.41
		c-15.9,1.02-27.75,16.24-23.35,32.48c4.07,16.25,22.34,23.69,36.21,16.58c12.52-6.43,11.84-18.27,29.44-23.01
		c7.78-2.03,15.23-1.35,21.32,1.7c13.2,7.1,19.97,25.38,8.12,37.56c-9.48,9.47-17.26,4.73-25.72,10.49
		c-9.82,6.43-11.84,20.64-3.05,29.44c9.13,8.8,23.35,6.77,29.78-3.04c5.75-8.8,0.68-16.25,10.15-25.72
		c12.18-12.52,30.45-5.75,36.88,8.13c14.21-20.98,28.08-42.3,41.62-63.96c1.02-6.08,4.4-11.16,9.14-14.55
		c7.1-11.51,14.21-23.01,20.97-34.17c-13.87-1.35-24.7-13.2-24.7-27.41c0-15.23,12.18-27.75,27.41-27.75
		c9.47,0,17.6,4.74,22.67,11.84c6.77-11.51,13.54-23.35,19.97-35.19c-8.8,1.7-17.94-2.71-23.69-10.49
		c-4.73-6.43-6.09-14.89-3.72-24.36c4.73-17.26,16.92-16.58,23.01-29.1c7.1-14.21-0.34-32.15-16.58-36.55
		c-16.24-4.39-31.46,7.79-32.48,23.35c-0.68,13.87,10.15,19.29,5.41,36.89c-2.37,8.8-7.44,14.89-13.87,18.61
		C1164.81,538.28,1147.21,534.55,1142.81,518.99L1142.81,518.99z M1155.67,649.27c0,8.12-6.42,14.55-14.55,14.55
		c-8.12,0-14.55-6.43-14.55-14.55c0-7.79,6.43-14.55,14.55-14.55C1149.25,634.71,1155.67,641.48,1155.67,649.27L1155.67,649.27z"/>
</g>
</svg>
